<?xml version="1.0" standalone="no"?>
<!DOCTYPE svg PUBLIC "-//W3C//DTD SVG 20010904//EN"
 "http://www.w3.org/TR/2001/REC-SVG-20010904/DTD/svg10.dtd">
<svg version="1.0" xmlns="http://www.w3.org/2000/svg"
 width="700.000000pt" height="700.000000pt" viewBox="0 0 700.000000 700.000000"
 preserveAspectRatio="xMidYMid meet">
<metadata>
Created by potrace 1.11, written by Peter Selinger 2001-2013
</metadata>
<g transform="translate(0.000000,700.000000) scale(0.100000,-0.100000)"
fill="#000000" stroke="none">
<path d="M5888 5465 c-1 -1 -23 -5 -48 -8 -185 -23 -174 -22 -285 -32 -44 -4
-89 -9 -100 -11 -118 -23 -1628 -23 -1813 0 -15 2 -70 7 -122 11 -52 4 -113 9
-135 11 -22 2 -92 6 -155 9 -106 4 -119 3 -166 -19 -77 -36 -99 -73 -100 -171
-1 -44 4 -113 11 -153 7 -40 16 -97 19 -126 4 -30 9 -64 11 -76 4 -19 9 -66
30 -275 3 -27 8 -81 10 -120 3 -38 7 -88 9 -110 4 -36 13 -134 22 -235 15
-178 16 -236 2 -247 -7 -7 -38 -14 -68 -17 -135 -13 -204 -37 -269 -91 -38
-33 -71 -78 -77 -107 -3 -13 -9 -43 -14 -68 -9 -45 -6 -342 4 -410 13 -87 16
-107 22 -144 3 -21 7 -48 10 -60 2 -11 11 -57 19 -101 40 -209 42 -217 147
-525 33 -96 65 -192 72 -212 6 -20 15 -40 19 -44 4 -4 7 -13 7 -20 0 -24 40
-121 59 -143 24 -28 98 -61 139 -61 28 0 32 -3 28 -22 -3 -13 -12 -52 -20 -88
-8 -36 -36 -159 -61 -275 -25 -115 -52 -239 -61 -275 -8 -36 -17 -75 -19 -87
-6 -25 13 -33 60 -28 17 2 37 4 45 4 8 1 21 5 29 10 8 5 51 116 96 247 l83
239 34 -2 c64 -5 76 3 92 60 9 28 27 91 42 139 l25 88 512 -5 c1095 -10 1531
-15 1534 -19 2 -2 21 -61 41 -132 l37 -129 52 -3 c49 -3 52 -2 55 23 2 20 13
-4 40 -82 106 -315 152 -439 166 -450 17 -14 100 -17 119 -5 7 5 10 18 7 32
-3 14 -7 36 -10 50 -2 14 -9 45 -14 70 -5 25 -12 56 -14 70 -2 14 -11 59 -20
100 -17 85 -23 112 -31 155 -3 17 -8 41 -11 55 -3 14 -8 36 -10 50 -7 39 -34
173 -40 197 -6 21 -4 21 56 16 l62 -5 53 54 c38 40 61 76 86 136 26 65 37 82
53 82 35 0 41 -12 54 -92 10 -55 10 -88 3 -115 -6 -21 -13 -56 -16 -78 -4 -22
-8 -48 -11 -57 -3 -10 -3 -27 1 -37 6 -19 9 -18 69 10 35 16 73 31 84 34 11 2
30 8 41 14 11 6 48 20 82 30 34 11 72 30 86 43 13 13 26 22 29 21 12 -8 32 -1
57 20 l27 22 -15 58 c-8 31 -17 76 -20 99 -3 23 -10 58 -15 78 -11 41 -17 77
-26 140 -3 25 -8 47 -9 50 -2 3 -6 26 -9 50 -4 25 -9 57 -12 71 -5 28 14 50
68 77 18 10 39 30 46 45 12 25 11 35 -12 95 -14 37 -26 79 -26 93 0 25 3 27
61 32 35 3 66 11 71 19 15 22 -1 104 -32 164 -19 34 -30 71 -30 95 0 47 -29
148 -72 244 -16 39 -30 76 -31 83 0 6 -23 34 -51 60 -28 26 -77 88 -110 137
-100 153 -173 245 -196 245 -5 0 -10 3 -10 8 0 7 -57 35 -120 58 l-35 12 1 74
c1 66 8 202 19 333 2 28 7 97 10 155 3 58 8 130 10 160 2 30 6 104 10 165 3
60 8 130 10 155 15 173 15 301 1 328 -31 60 -114 90 -250 90 -46 0 -86 -1 -88
-3z"/>
<path d="M500 5423 c0 -4 -4 -37 -10 -73 -5 -36 -11 -90 -15 -120 -3 -30 -8
-66 -10 -80 -2 -14 -7 -50 -10 -80 -3 -30 -8 -66 -10 -80 -2 -14 -7 -47 -10
-75 -6 -54 -23 -191 -30 -240 -2 -16 -7 -57 -10 -90 -4 -33 -8 -67 -10 -75 -3
-8 -7 -38 -10 -66 -5 -43 -3 -53 12 -58 10 -4 112 -10 228 -13 139 -3 212 -9
217 -17 7 -10 3 -68 -7 -106 -2 -8 -6 -33 -10 -55 -8 -56 -40 -118 -82 -160
-40 -40 -66 -55 -146 -85 -31 -12 -67 -30 -81 -41 -26 -20 -26 -21 -22 -136 3
-67 10 -121 17 -129 6 -8 8 -14 3 -14 -16 0 -171 -26 -212 -35 -50 -11 -58
-14 -84 -23 -33 -13 -41 -27 -34 -55 6 -25 95 -64 188 -82 58 -12 198 -34 248
-40 30 -4 59 -9 63 -12 4 -3 5 -32 2 -66 -3 -34 -8 -88 -10 -119 -3 -32 -7
-84 -10 -115 -3 -32 -7 -94 -10 -138 -3 -44 -8 -100 -10 -125 -2 -25 -7 -79
-10 -120 -3 -41 -8 -95 -10 -120 -2 -25 -7 -81 -10 -125 -3 -44 -7 -96 -10
-115 -2 -19 -7 -80 -10 -135 -4 -55 -8 -113 -10 -130 -4 -28 -9 -93 -20 -230
-2 -33 -7 -98 -11 -145 -4 -47 -8 -105 -8 -130 l-1 -45 49 -3 c27 -2 52 0 57
5 9 9 25 109 28 176 0 15 5 27 10 27 5 0 8 -10 6 -23 -2 -12 -6 -73 -9 -135
-4 -62 -9 -157 -13 -210 -3 -53 -7 -119 -7 -147 -1 -49 -1 -50 29 -49 95 4
102 11 110 100 4 38 8 85 10 104 2 19 6 73 10 120 3 47 8 96 10 110 2 14 7 68
10 120 3 52 8 106 10 120 2 14 7 63 10 110 3 47 8 101 10 120 2 19 7 69 10
110 3 41 8 98 11 125 3 28 7 73 9 100 2 28 6 79 9 115 3 36 8 97 12 135 3 39
7 81 9 95 2 14 6 66 10 115 3 50 8 106 10 125 2 19 7 73 10 120 9 116 14 162
18 166 2 2 21 6 43 9 64 9 118 17 136 20 9 2 48 7 85 10 37 4 70 9 73 10 15 9
157 20 245 19 118 0 417 -13 421 -17 2 -2 6 -25 9 -53 3 -27 7 -67 10 -89 2
-22 7 -61 10 -87 10 -95 16 -144 20 -178 2 -19 6 -60 9 -90 3 -30 10 -95 16
-145 5 -49 12 -117 15 -150 3 -33 8 -76 10 -95 5 -36 11 -96 20 -177 3 -27 7
-64 10 -83 2 -19 7 -66 10 -105 3 -38 8 -81 10 -95 2 -14 6 -52 10 -85 3 -33
8 -78 10 -100 3 -22 7 -62 10 -90 9 -85 10 -86 68 -83 l52 3 -1 65 c-1 62 -11
192 -19 255 -2 17 -7 67 -10 113 -3 46 -7 100 -10 120 -2 20 -7 78 -10 127 -3
50 -8 101 -10 115 -2 14 -7 66 -10 115 -3 50 -7 106 -9 125 -2 19 -7 73 -10
120 -4 47 -9 103 -11 125 -2 22 -7 74 -10 115 -3 41 -7 93 -10 115 -13 119
-15 185 -5 185 5 0 10 -3 11 -7 0 -5 2 -15 3 -23 4 -18 16 -111 22 -160 2 -19
6 -50 9 -68 3 -17 8 -49 10 -70 6 -48 14 -101 20 -132 2 -14 7 -47 10 -75 7
-54 11 -88 25 -180 5 -33 12 -80 15 -105 3 -25 10 -81 16 -125 6 -44 13 -89
14 -100 8 -62 16 -113 19 -132 3 -12 7 -48 11 -80 3 -32 8 -67 10 -78 2 -11 7
-40 10 -65 3 -25 7 -54 9 -65 2 -11 7 -42 10 -70 4 -27 9 -63 11 -80 3 -16 7
-47 10 -67 3 -21 7 -53 10 -70 2 -18 11 -85 20 -148 11 -84 20 -119 33 -128
15 -12 54 -12 130 -2 3 0 -5 81 -13 130 -2 14 -6 50 -10 80 -3 30 -13 109 -21
175 -8 66 -17 140 -20 165 -3 25 -7 59 -9 75 -2 17 -6 53 -10 80 -7 65 -14
123 -20 160 -2 17 -7 57 -10 90 -3 33 -8 67 -10 75 -2 8 -7 44 -10 80 -4 36
-17 151 -31 255 -13 105 -26 213 -29 240 -3 28 -7 61 -10 75 -2 14 -7 48 -10
75 -11 106 -15 141 -20 165 -2 14 -7 52 -10 85 -3 33 -8 75 -11 93 -4 24 -1
32 10 33 9 1 19 2 24 3 4 1 30 5 57 10 57 8 187 45 196 54 11 11 18 162 8 162
-5 0 -9 9 -9 20 0 11 -4 20 -10 20 -5 0 -10 7 -10 15 0 11 -12 15 -47 16 -27
0 -102 2 -168 4 -66 2 -155 3 -198 4 l-78 1 6 48 c3 26 8 65 10 87 3 22 7 59
9 83 2 23 6 45 9 49 4 3 0 14 -8 23 -13 15 -14 20 -3 31 7 8 25 32 39 54 31
46 85 104 120 128 13 9 19 17 13 17 -16 0 -62 -37 -112 -90 l-42 -45 9 32 c5
18 31 60 56 92 55 69 61 115 8 60 -18 -19 -41 -45 -53 -59 l-21 -25 15 38 c25
63 0 41 -28 -25 -20 -48 -25 -54 -20 -28 8 50 24 100 32 100 11 0 92 79 92 90
0 17 -8 12 -45 -27 l-35 -38 25 50 25 50 -33 -37 c-19 -21 -37 -38 -41 -38
-15 0 -4 30 17 47 13 10 31 30 40 44 17 25 16 26 -4 24 -27 -2 -79 -45 -79
-67 0 -9 -4 -20 -10 -23 -6 -4 -10 9 -10 30 0 25 -4 35 -12 32 -7 -2 -18 3
-25 12 -11 15 -12 15 -13 0 0 -9 -9 -24 -20 -34 -25 -23 -25 -20 6 115 5 22 2
21 -30 -14 l-36 -37 -1 30 c-1 17 -3 36 -4 41 -1 6 -4 18 -5 28 -1 9 -6 -1
-11 -23 -13 -53 -26 -65 -39 -34 -7 18 -9 4 -7 -60 1 -60 -2 -85 -10 -88 -9
-3 -13 9 -13 39 -1 24 -7 66 -15 93 -13 48 -14 48 -14 15 l-1 -35 -20 33 c-11
17 -22 32 -24 32 -2 0 5 -28 15 -62 19 -61 23 -140 5 -93 -4 11 -16 40 -26 63
l-17 44 -8 -54 c-4 -29 -9 -46 -12 -38 -8 26 -26 60 -32 60 -3 0 -5 -18 -5
-40 1 -22 1 -40 -1 -40 -2 0 -20 16 -39 35 -43 41 -56 46 -27 9 14 -17 18 -34
15 -53 -4 -19 1 -33 18 -52 14 -15 29 -50 37 -85 7 -32 19 -84 27 -115 18 -71
18 -89 -1 -89 -22 0 -59 -36 -50 -49 8 -15 12 -33 20 -121 13 -132 20 -119
-68 -151 -67 -25 -90 -29 -150 -25 -40 2 -89 4 -109 5 l-38 1 0 94 c0 92 -1
95 -29 118 -16 14 -51 30 -77 37 -27 7 -62 19 -79 26 -32 14 -101 83 -127 125
-43 71 -71 260 -38 260 269 6 414 11 422 16 8 5 7 30 -7 164 -2 19 -7 64 -10
100 -3 36 -8 81 -10 100 -2 19 -7 67 -10 105 -3 39 -7 90 -10 115 -13 127 -16
153 -20 207 -7 84 -26 246 -29 250 -6 7 -826 13 -826 6z m187 -3665 c-2 -13
-4 -3 -4 22 0 25 2 35 4 23 2 -13 2 -33 0 -45z"/>
</g>
</svg>
